<svg xmlns="http://www.w3.org/2000/svg" width="256" height="256" viewBox="0 0 256 256">
  <rect width="256" height="256" rx="64" fill="#25D366"/>
  <path fill="#ffffff" d="M128 52c-41.97 0-76 31.5-76 70.35 0 12.39 3.6 24.3 10.4 34.75L52 204l48.5-9.6c9.4 3.1 18.9 4.7 27.5 4.7 41.97 0 76-31.5 76-70.35C204 83.5 169.97 52 128 52zm0 128.4c-8 0-16.7-1.8-25.2-5.3l-2.9-1.2-28.8 5.7 6.1-27.6-1.6-2.7c-6.5-10.4-9.9-22-9.9-33.6 0-30.1 27.8-54.6 62.3-54.6s62.3 24.5 62.3 54.6-27.8 54.6-62.3 54.6zm34.6-41.5c-1.9-1-11.2-5.5-12.9-6.1-1.7-.6-3-.9-4.2.9s-4.9 6.1-6 7.4c-1.1 1.2-2.2 1.4-4.1.5-1.9-1-8-2.9-15.2-9.2-5.6-4.9-9.4-11-10.5-12.9-1.1-1.9-.1-2.9.8-3.8.9-.9 1.9-2.2 2.8-3.3.9-1.1 1.2-1.9 1.9-3.1.6-1.2.3-2.3-.1-3.3-.4-1-4.2-10-5.8-13.7-1.6-3.9-3.2-3.3-4.2-3.3h-3.6c-1.2 0-3.3.5-5 2.3-1.7 1.9-6.6 6.3-6.6 15.4s6.8 17.8 7.8 19.1c1 1.2 13.4 20.2 32.6 28.3 4.6 2 8.1 3.2 10.9 4.1 4.6 1.4 8.7 1.2 12 .7 3.7-.6 11.2-4.5 12.8-8.8 1.6-4.2 1.6-7.8 1.1-8.6-.5-.7-1.7-1.1-3.6-2.1z"/>
</svg>

